<?xml version="1.0" encoding="utf-8" ?>
<svg xmlns="http://www.w3.org/2000/svg" xmlns:xlink="http://www.w3.org/1999/xlink">
	<path fill="#2C273E" d="M46.3058 456.402C42.861 454.068 39.3577 451.034 38.6104 446.699C37.9764 443.021 39.7901 440.21 41.9436 437.408C48.2682 429.179 56.9591 422.075 64.4506 414.881Q88.1781 392.064 112.304 369.668Q199.651 288.824 290.49 211.923C316.568 189.574 341.393 165.718 368.594 144.696Q381.4 134.776 395.043 126.042Q408.686 117.308 423.057 109.832C493.945 72.4154 571.81 52.5213 651.035 42.7231C677.1 39.4995 703.313 38.4982 729.547 37.7934C758.914 37.0045 788.369 38.6443 817.732 39.2865C833.52 39.6317 849.726 38.4182 865.437 39.842C868.702 40.1379 872.968 40.6998 875.568 42.8466C877.021 44.0453 877.911 46.1689 878.06 48.0174C878.378 51.9605 875.363 55.4669 872.867 58.1887C867.71 63.8132 861.738 68.834 856.162 74.0464Q840.68 88.5365 825.354 103.192Q779.924 147.225 736.314 193.06C741.46 205.729 749.245 217.294 756.515 228.833C780.169 266.371 805.995 302.006 838.055 332.88Q847.762 342.139 857.791 351.049C865.96 358.175 878.37 366.021 883.683 375.347C887.515 382.074 883.624 391.921 880.858 398.44C863.117 440.247 831.73 479.194 799.763 510.997C817.721 522.839 837.546 531.867 857.468 539.864C870.459 545.078 883.682 549.83 896.296 555.928C932.114 573.239 965.65 600.715 974.083 641.431C977.675 658.773 976.654 675.519 967.979 691.159C974.813 700.222 978.84 709.016 977.141 720.617C975.643 730.84 970.074 740.679 961.678 746.777C957.163 750.056 952.295 751.995 946.91 753.322Q947.578 761.116 947.82 768.935Q948.062 776.754 947.877 784.574Q947.691 792.395 947.079 800.194Q946.466 807.992 945.429 815.746C938.389 866.143 914.915 922.475 881.662 961.249C874.564 969.524 858.68 986.929 847.151 988.091C846.391 988.168 845.717 988.031 844.987 987.846C844.183 986.959 843.89 986.564 844.146 985.248C844.238 984.773 844.617 984.032 844.831 983.581L844.71 981.738C843.24 981.885 842.385 981.998 841.033 981.239C840.069 979.801 840.214 978.519 840.537 976.901C841.905 970.052 845.402 963.919 846.671 956.894C842.914 960.365 831.31 970.849 826.125 970.942C825.369 970.955 825.308 970.904 824.657 970.747C823.956 969.834 823.816 969.365 824.029 968.198C824.889 963.487 827.201 958.896 828.468 954.248C823.975 956.202 814.784 961.518 810.047 959.78C809.312 958.682 809.095 958.201 809.302 956.861C809.635 954.704 811.442 952.307 812.57 950.459C808.84 951.916 799.035 956.732 795.328 955.304C795.175 955.245 795.042 955.143 794.898 955.063C794.942 953.371 795.867 952.474 797.049 951.32C799.884 948.551 803.268 946.474 805.959 943.55C800.733 945.525 791.564 950.207 786.053 948.969C785.54 948.397 785.19 948.329 785.295 947.492C785.595 945.085 788.076 943.013 789.687 941.349C785.681 942.874 777.89 946.563 773.743 945.256C773.557 945.197 773.389 945.094 773.213 945.014C772.836 943.941 772.783 943.778 773.321 942.694C776.079 937.132 786.627 929.939 791.709 925.906C782.833 929.044 761.524 936.505 752.818 931.546C752.314 931.259 752.115 931.004 751.744 930.613C751.693 929.168 751.979 928.703 752.966 927.633C757.462 922.756 767.152 917.223 772.87 913.298C757.277 918.077 744.399 917.709 729.745 909.981C727.974 909.047 725.976 907.966 725.385 905.915C725.149 905.098 725.339 905.001 725.634 904.279C732.326 900.396 742.56 900.555 750.177 898.973C761.66 896.589 773.676 889.766 783.05 882.887C837.276 843.088 851.987 773.34 913.178 738.652C908.608 727.368 907.528 717.175 912.471 705.73C916.483 696.443 923.857 688.853 933.342 685.176C939.719 682.704 946.126 682.396 952.869 682.94C957.495 665.795 954.214 650.44 945.394 635.207C924.281 598.742 881.239 580.377 844.429 564.074Q823.351 554.844 802.587 544.926C795.954 541.746 788.798 538.794 782.47 535.067C767.795 550.572 750.409 563.318 733.336 576.029C658.975 631.394 559.198 681.905 464.909 684.43C441.92 685.046 366.384 683.616 350.114 668.202C348.241 666.428 347.036 663.281 346.148 660.868C343.276 653.058 341.422 644.749 339.173 636.731Q334.881 621.749 329.886 606.986C321.518 582.046 311.21 557.886 301.484 533.464C294.064 514.833 287.532 495.37 278.158 477.615C259.431 474.153 240.328 472.669 221.454 470.149C178.25 464.379 134.822 458.514 91.2517 456.474C83.2525 456.099 75.1945 455.807 67.1861 455.943C60.2399 456.061 53.2463 456.64 46.3058 456.402Z"/>
	<path fill="#FFEFC3" d="M497.24 236.23C503.568 236.055 508.868 237.905 514.792 239.811C508.861 240.017 502.9 240.089 497.009 240.856C491.721 241.318 486.384 242.014 481.115 240.99L480.296 239.766C484.974 236.838 491.905 236.582 497.24 236.23Z"/>
	<path fill="#FFEFC3" d="M520.212 232.23C527.799 232.439 534.688 238.042 540.285 242.655C536.538 242.157 532.769 241.78 529.013 241.357C521.59 240.276 514.708 236.67 507.954 233.593C512.038 232.921 516.086 232.536 520.212 232.23Z"/>
	<path fill="#575867" d="M475.348 238.373C475.528 239.253 475.511 239.777 475.318 240.681C473.416 249.594 461.669 258.171 454.429 262.67C442.66 269.983 430.34 273.755 416.587 270.485L415.73 269.909L415.927 269.566C420.882 270.001 425.145 270.304 430.063 269.386C450.913 265.498 463.671 255.453 475.348 238.373Z"/>
	<path fill="#FFEFC3" d="M696.61 377.744C696.84 377.928 697.096 378.083 697.3 378.295C698.383 379.419 699.045 381.896 699.588 383.335C704.368 396.002 700.436 405.222 700.492 418.125L700.348 419.269L699.898 419.39C697.857 416.462 696.783 412.939 696.34 409.426C695.804 405.174 696.321 400.612 696.438 396.334Q696.602 387.04 696.61 377.744Z"/>
	<path fill="#FFEFC3" d="M724.299 443.182C727.279 445.165 729.636 450.193 731.485 453.261C729.805 461.957 731.398 470.098 732.727 478.738C731.774 477.916 730.907 476.899 730.122 475.914C722.414 466.24 722.88 454.788 724.299 443.182Z"/>
	<path fill="#999EA7" d="M389.155 625.689C389.612 625.679 390.037 625.891 390.467 626.037C394.431 631.312 397.263 642.234 397.904 648.729C396.758 649.476 393.805 649.103 392.359 649.119C387.833 642.814 385.322 633.926 382.608 626.697L389.155 625.689Z"/>
	<path fill="#FFEFC3" d="M704.663 399.378C705.774 401.009 706.514 403.285 707.268 405.124C710.723 413.551 710.068 419.223 710.194 427.978C710.261 432.59 710.563 437.19 710.376 441.803C701.632 429.022 702.444 414.053 704.663 399.378Z"/>
	<path fill="#FFEFC3" d="M712.559 418.847C716.274 421.892 720.026 433.384 722.088 437.952C720.895 444.568 720.467 451.18 720.157 457.88L719.79 459.068C719.664 458.972 719.527 458.89 719.413 458.779C718.34 457.736 717.67 455.655 717.097 454.27C712.461 443.075 712.662 430.785 712.559 418.847Z"/>
	<path fill="#FFEFC3" d="M750.41 477.805C752.115 478.745 753.594 480.672 754.951 482.099C763.084 490.651 763.131 495.746 767.095 506.353C768.783 510.869 770.922 515.249 773.016 519.588C772.772 519.471 772.514 519.379 772.283 519.237C756.786 509.72 754.003 494.239 750.41 477.805Z"/>
	<path fill="#FFEFC3" d="M540.297 230.784L548.235 230.479C555.917 235.54 563.258 240.36 567.878 248.558L559.784 246.336C545.187 243.582 542.082 237.128 529.91 231.164L540.297 230.784Z"/>
	<path fill="#FFEFC3" d="M789.424 512.833C794.683 514.801 799.784 518.511 804.526 521.515C807.931 529.866 812.152 537.222 817.276 544.605C810.844 542.185 805.266 538.498 799.455 534.889C796.029 527.354 791.761 520.906 789.424 512.833Z"/>
	<path fill="#999EA7" d="M402.684 625.176L407.185 624.752C407.515 625.276 407.829 625.791 408.119 626.339C410.066 630.016 417.286 646.592 416.339 649.759L414.625 650.011L405.507 649.949C402.36 643.326 399.197 633.419 398.464 626.089C399.358 625.313 401.462 625.332 402.684 625.176Z"/>
	<path fill="#FFEFC3" d="M685.585 350.838C685.691 350.921 685.806 350.994 685.903 351.087C687.076 352.217 687.969 354.577 688.679 356.062C695.514 370.361 693.453 385.93 692.855 401.256C692.698 401.133 692.524 401.028 692.382 400.888C691.042 399.563 690.266 397.004 689.575 395.266C683.857 380.887 684.943 365.939 685.585 350.838Z"/>
	<path fill="#FFEFC3" d="M614.9 249.339C617.724 250.336 620.662 252.294 623.086 254.054C634.422 262.288 636.263 276.482 638.334 289.321C629.254 286.013 619.277 258.358 614.9 249.339Z"/>
	<path fill="#FFEFC3" d="M890.728 561.741C896.354 563.01 901.711 566.275 906.639 569.14C910.578 577.864 915.059 586.661 918.236 595.685C904.193 590.905 896.895 573.975 890.728 561.741Z"/>
	<path fill="#FFEFC3" d="M733.546 457.827C738.274 461.388 742.688 468.784 746.657 473.471C747.252 478.092 748.008 482.654 749.17 487.169C750.339 491.719 751.984 496.365 752.59 501.022C750.429 499.649 748.349 497.551 746.59 495.697C737.57 486.187 733.147 470.713 733.546 457.827Z"/>
	<path fill="#FFEFC3" d="M767.735 497.232C771.601 498.699 780.481 506.82 785.325 509.712C787.435 517.705 791.039 524.836 793.778 532.569C788.468 530.183 783.754 527.519 779.022 524.122L778.735 523.293C775.878 514.871 767.348 506.373 767.735 497.232Z"/>
	<path fill="#999EA7" d="M797.512 416.992C806.036 423.823 815.989 429.71 825.041 435.893L819.441 443.182C811.283 440.827 798.703 428.879 791.735 423.197C793.556 421.033 795.55 419.027 797.512 416.992Z"/>
	<path fill="#FFEFC3" d="M636.221 265.181C638.895 266.423 641.28 269.028 643.243 271.196C654.225 283.322 653.423 297.826 652.882 313.189C651.317 311.97 650.278 309.855 649.288 308.147C643.808 298.696 643.216 290.798 640.674 280.574C639.388 275.401 637.752 270.287 636.221 265.181Z"/>
	<path fill="#FFEFC3" d="M809.974 524.317C817.19 527.421 824.435 532.492 831.313 536.423C834.983 542.915 839.276 549.404 842.309 556.208C837.511 554.13 832.335 552.224 827.757 549.737C818.577 544.751 812.864 533.98 809.974 524.317Z"/>
	<path fill="#FFEFC3" d="M836.16 538.03C843.542 539.487 850.581 543.508 857.226 546.908Q863.33 557.286 869.311 567.735C867.6 567.272 865.958 566.541 864.313 565.881C860.379 564.301 856.275 562.745 852.704 560.428C845.608 555.825 839.423 545.671 836.16 538.03Z"/>
	<path fill="#FFEFC3" d="M938.613 593.234C940.306 594.077 941.536 595.225 942.906 596.507C957.364 610.031 957.82 630.078 958.418 648.636C956.051 646.37 954.89 640.604 953.673 637.432C951.518 631.815 948.843 626.408 946.827 620.733C943.646 611.778 941.283 602.362 938.613 593.234Z"/>
	<path fill="#FFEFC3" d="M586.443 237.422C591.041 238.221 595.745 239.872 599.898 241.994C612.087 248.225 617.095 260.194 621.052 272.623C614.479 269.981 608.743 264.827 603.191 260.532C599.908 251.477 592.754 244.442 586.443 237.422Z"/>
	<path fill="#FFEFC3" d="M673.174 322.356C673.42 322.576 673.638 322.827 673.857 323.074C675.428 324.849 676.532 327.582 677.555 329.71C684.461 344.063 682.501 358.155 681.374 373.469C679.178 370.51 677.624 366.792 676.208 363.402C670.243 349.12 671.317 337.35 673.174 322.356Z"/>
	<path fill="#FFEFC3" d="M556.98 231.503C560.286 231.465 563.691 231.816 566.945 232.393C581.591 234.989 589.278 246.029 597.208 257.55C594.372 257.046 591.421 255.986 588.661 255.115C572.912 250.147 568.715 241.859 556.98 231.503Z"/>
	<path fill="#FFEFC3" d="M958.895 617.857C959.001 617.94 959.114 618.014 959.212 618.105C965.308 623.769 968.877 645.161 969.381 653.234C969.983 662.878 969.812 678.964 963.057 686.648C961.947 686.231 960.189 685.602 959.3 684.839C958.281 683.965 958.45 683.21 958.382 681.981C959.187 680.899 960.312 682.068 961.77 681.76C962.403 680.69 962.635 679.817 962.676 678.59C962.864 673.024 961.928 667.283 961.821 661.693C961.657 653.076 962.207 644.538 961.445 635.924C960.909 629.866 959.216 623.929 958.895 617.857Z"/>
	<path fill="#FFEFC3" d="M913.454 574.144C916.108 574.847 918.478 576.278 920.809 577.691C935.052 586.324 938.246 602.301 941.896 617.376C941.733 617.298 941.563 617.233 941.406 617.143C939.23 615.886 937.065 613.212 935.278 611.415C923.814 599.885 918.796 589.244 913.454 574.144Z"/>
	<path fill="#FFEFC3" d="M863.494 549.1C870.316 550.91 877.057 554.594 883.468 557.511C888.383 565.306 895.095 574.051 898.062 582.781C897.332 582.541 897.591 582.652 896.907 582.327C880.426 574.512 869.735 566.761 863.494 549.1Z"/>
	<path fill="#FFEFC3" d="M655.56 289.808C656.31 290.218 656.822 290.702 657.361 291.358C659.397 293.834 660.899 297.022 662.449 299.825C671.074 315.412 669.725 326.95 668.367 344.129C664.647 340.667 658.602 326.194 656.695 321.113C659.026 310.896 656.97 300.032 655.56 289.808Z"/>
	<path fill="#727382" d="M829.757 439.675C831.334 441.321 832.827 443.066 834.352 444.762C830.272 451.027 825.238 456.354 821.582 462.985C818.084 467.132 812.41 474.797 807.881 477.579C803.585 477.636 790.936 494.385 786.793 498.062L781.825 496.017Q794.187 482.969 806.125 469.533C811.088 463.85 815.727 457.914 820.843 452.361C821.883 452.587 822.986 452.881 824.048 452.957C825.357 453.051 825.832 452.669 826.709 451.79C827.079 449.715 826.155 447.451 825.601 445.453L829.757 439.675Z"/>
	<path fill="#999EA7" d="M345.089 623.256C356.058 625.479 367.159 626.033 378.31 626.567Q383.089 637.746 387.659 649.011C375.241 648.219 363.464 646.792 351.307 644.049C350.035 636.96 347.459 630.04 345.089 623.256Z"/>
	<path fill="#575867" d="M630.407 293.353C631.673 294.279 632.66 295.784 633.638 297.015C621.911 310.16 611.052 324.062 599.493 337.358C578.497 361.508 556.91 385.084 536.358 409.625C514.26 436.012 493.478 463.24 472.494 490.495C470.673 489.479 469.967 487.32 469.161 485.52L630.407 293.353Z"/>
	<path fill="#575867" d="M637.699 301.468C639.334 304.336 640.858 307.281 642.43 310.184C631.25 317.344 579.64 385.504 571.568 399.179C569.575 394.697 566.537 390.684 563.756 386.665C570.303 378.259 577.724 370.581 584.716 362.549C602.394 342.243 620.448 322.13 637.699 301.468Z"/>
	<defs>
		<linearGradient id="gradient_0" gradientUnits="userSpaceOnUse" x1="844.99518" y1="456.65619" x2="815.2207" y2="423.08716">
			<stop offset="0" stop-color="#525265"/>
			<stop offset="1" stop-color="#75747F"/>
		</linearGradient>
	</defs>
	<path fill="url(#gradient_0)" d="M869.883 372.927C871.602 374.602 873.142 376.277 874.643 378.153C870.903 409.012 836.91 458.14 816.003 481.513Q808.905 489.452 801.242 496.848C798.012 499.935 794.444 502.832 791.429 506.12C789.618 504.91 787.825 503.647 785.968 502.509C794.085 495.413 803.906 487.949 807.881 477.579C812.41 474.797 818.084 467.132 821.582 462.985L822.312 463.672C823.71 463.705 824.3 463.517 825.42 462.64C831.491 457.886 856.952 421.733 857.797 414.706C857.108 414.373 856.683 413.982 855.89 414.115C853.842 414.459 852.26 416.437 851.044 417.973C849.353 420.107 840.387 434.305 840.368 435.894C840.353 437.129 840.811 438.783 840.958 440.057L840.511 440.443C837.969 440.198 835.803 437.259 834.159 435.481C836.905 429.399 840.88 423.882 844.571 418.348C852.976 405.746 866.137 387.562 869.883 372.927Z"/>
	<path fill="#727382" d="M452.952 224.652C457.225 224.244 462.433 223.815 466.421 225.699C468.121 226.501 469.254 227.672 469.79 229.519C470.787 232.953 468.346 237.651 466.588 240.465C458.408 253.553 443.569 261.091 428.932 264.357C424.272 265.064 418.151 265.5 413.898 263.135C412.248 262.218 411.182 260.922 410.8 259.045C410.05 255.354 412.924 250.669 414.936 247.713C423.632 234.938 438.07 227.489 452.952 224.652Z"/>
	<path fill="#727382" d="M761.868 249.318C770.331 261.058 778.522 273.076 787.292 284.583Q800.604 301.939 814.996 318.412Q829.388 334.884 844.8 350.406C852.688 358.332 861.864 365.017 869.883 372.927C868.354 372.573 867.057 372.132 865.598 372.966C862.649 374.651 861.336 379.525 859.659 382.338L859.128 381.724C856.901 373.899 845.163 365.954 839.02 360.886C840.683 357.898 842.785 354.766 842.864 351.238C842.894 349.939 842.732 349.433 841.837 348.523C841.669 348.531 841.499 348.515 841.334 348.546C837.934 349.182 835.321 354.659 833.757 357.398C831.321 354.909 821.93 347.133 821.18 344.573C821.663 342.062 821.647 340.585 820.06 338.468C815.696 332.65 810.374 327.455 805.447 322.107Q797.675 313.561 790.237 304.723C776.708 288.847 765.401 272.066 754.104 254.585C756.153 252.442 759.35 250.873 761.868 249.318Z"/>
	<path fill="#575867" d="M864.457 48.9971Q865.669 48.9304 866.882 48.8973C868.526 48.8686 869.487 48.9061 870.695 50.0577C869.516 55.1905 822.158 96.9212 814.331 104.489Q732.234 185.025 655.832 270.983C654.905 272.097 654.093 273.016 652.621 273.228L652.293 272.427C652.801 270.518 653.535 268.819 654.63 267.171C657.432 262.953 661.395 259.011 664.698 255.14Q675.197 242.794 685.845 230.576C725.223 185.576 767.463 143.178 809.791 100.98Q826.51 84.2044 843.556 67.761C850.201 61.3567 856.857 54.2511 864.457 48.9971Z"/>
	<path fill="#999EA7" d="M837.235 363.777C844.141 370.26 850.799 377.068 859.128 381.724L859.659 382.338C849.276 400.04 840.118 414.92 828.367 431.726C819.679 425.106 810.498 419.209 801.923 412.391C814.737 396.767 826.269 380.738 837.235 363.777Z"/>
	<path fill="#999EA7" d="M621.292 282.282C623.445 283.819 625.296 285.979 627.162 287.856L467.502 479.988C464.729 477.999 463.233 472.389 461.996 469.221C475.833 459.924 485.874 445.265 496.37 432.511L524.934 397.969C556.967 359.355 588.781 320.492 621.292 282.282Z"/>
	<path fill="#575867" d="M50.9394 446.181C67.6884 445.352 84.2043 446.753 100.88 448.132Q131.238 450.668 161.547 453.74Q263.42 462.897 365.032 474.615Q384.348 476.719 403.61 479.271C423.929 482.151 444.3 485.596 464.779 487.069C465.529 488.752 466.371 490.451 466.758 492.262C467.033 493.551 467.123 492.994 466.417 494.079L465.983 494.067C452.649 493.599 438.812 490.435 425.57 488.657C395.455 484.614 365.316 480.432 335.14 476.877C310.741 474.003 286.261 471.848 261.858 468.991C218.286 463.889 174.861 458.255 131.163 454.238C117.514 452.984 103.795 451.56 90.1165 450.763C79.7722 450.16 69.3856 450.146 59.0586 449.258C56.5864 449.045 52.0572 449.101 50.307 447.25L50.9394 446.181Z"/>
	<path fill="#999EA7" d="M788.35 426.835C797.715 433.832 805.325 442.42 815.352 448.674C802.913 465.279 788.482 479.824 773.408 493.994C768.071 491.958 751.354 471.286 746.647 465.835C761.628 453.947 775.04 440.523 788.35 426.835Z"/>
	<path fill="#FFEFC3" d="M945.315 688.678C950.018 687.975 955.929 689.698 959.831 692.279C965.626 696.112 969.51 702.79 970.813 709.547C972.432 717.941 970.219 726.953 965.391 733.955C959.809 742.052 952.51 744.799 943.318 746.563C937.001 746.539 930.708 745.328 925.449 741.62Q924.965 741.28 924.5 740.916Q924.034 740.552 923.587 740.165Q923.14 739.778 922.713 739.369Q922.287 738.96 921.881 738.529Q921.476 738.099 921.093 737.649Q920.709 737.199 920.349 736.73Q919.989 736.261 919.654 735.774Q919.318 735.288 919.007 734.785Q918.696 734.282 918.411 733.764Q918.127 733.246 917.868 732.714Q917.61 732.183 917.379 731.639Q917.147 731.095 916.944 730.539Q916.741 729.984 916.566 729.42Q916.391 728.855 916.244 728.282Q916.098 727.709 915.981 727.13Q915.864 726.551 915.776 725.966C914.44 717.331 917.586 707.914 922.772 701.03C928.551 693.356 935.972 689.952 945.315 688.678Z"/>
	<path fill="#2C273E" d="M965.202 719.339C965.362 719.544 965.537 719.737 965.681 719.953C966.755 721.562 966.595 723.678 966.132 725.484C964.753 730.857 959.459 735.777 954.826 738.611C947.992 742.793 941.065 743.43 933.465 741.659C932.714 740.776 932.32 740.197 931.997 739.079L932.398 738.409C936.217 737.367 940.674 739.091 944.893 738.115C954.596 735.872 960.433 727.339 965.202 719.339Z"/>
	<path fill="#2C273E" d="M943.166 695.601C945.149 695.453 947.215 695.242 949.181 695.646C950.666 695.951 952.773 696.525 953.675 697.814C953.005 700.075 943.439 700.302 941.211 700.943Q939.178 701.548 937.288 702.509Q935.397 703.47 933.711 704.756C928.235 708.91 926.023 714.167 925.161 720.769C924.979 722.101 924.893 724.008 924.272 725.18C923.805 726.064 923.637 726.065 922.664 726.312C921.734 725.627 921.468 724.943 921.201 723.857C919.888 718.515 921.873 711.781 924.698 707.212C929.05 700.174 935.426 697.299 943.166 695.601Z"/>
	<path fill="#575867" d="M423.978 655.209C433.592 655.875 443.467 655.443 453.078 654.874C495.862 652.343 536.567 641.41 577.21 628.436C569.891 639.665 558.454 648.374 551.649 659.87C491.194 679.364 415.97 681.981 355.351 662.039C354.159 658.039 353.365 653.993 352.565 649.903Q361.825 651.789 371.201 652.963Q380.577 654.137 390.016 654.592C391.024 656.682 391.948 659.13 394.147 660.196C394.007 658.362 393.989 657.358 394.839 655.705C396.59 654.654 398.017 654.95 400 654.969C400.69 656.969 401.317 659.213 402.441 661.014C403.251 662.311 404.001 663.315 405.481 663.679L406.266 662.807C407.006 660.339 406.639 657.966 406.416 655.441L419.989 655.173C420.835 657.352 421.547 659.309 423.009 661.17L423.695 661.173C424.501 659.282 424.117 657.215 423.978 655.209Z"/>
	<path fill="#727382" d="M757.511 515.386C763.319 520.46 769.133 525.502 774.408 531.141C743.408 557.327 711.393 584.171 675.548 603.514C676.767 598.164 677.872 592.496 674.568 587.573C674.009 586.74 673.449 586.31 672.552 585.847C671.316 586.029 670.774 586.251 670.001 587.288C668.366 589.479 667.844 592.542 667.434 595.182C669.047 598.73 670.743 602.261 672.251 605.853C663.481 610.844 654.874 616.135 645.993 620.925Q634.789 627.091 623.259 632.622Q611.729 638.153 599.909 643.033Q588.088 647.912 576.014 652.125Q563.94 656.337 551.649 659.87C558.454 648.374 569.891 639.665 577.21 628.436C587.461 624.309 597.853 620.353 607.893 615.733Q618.143 610.962 628.201 605.797Q638.258 600.632 648.108 595.081Q657.958 589.53 667.585 583.601Q677.212 577.672 686.602 571.374Q695.992 565.077 705.13 558.419Q714.269 551.762 723.143 544.756Q732.016 537.75 740.612 530.404Q749.207 523.059 757.511 515.386Z"/>
	<path fill="#727382" d="M664.838 291.308C668.372 284.743 674.016 276.303 681.495 273.936C684.824 272.882 688.058 273.428 691.064 275.129C710.136 285.919 746.195 347.743 760.57 369.175Q765.974 377.118 771.735 384.807C773.157 386.73 775.508 389.157 776.553 391.239C775.533 392.611 774.707 393.726 774.918 395.516C775.695 402.104 787.255 409.922 792.236 413.915C790.467 415.743 788.614 417.508 786.805 419.298C783.527 416.306 775.97 406.045 772.49 404.927C771.629 404.65 771.139 404.498 770.382 404.959C769.942 405.831 769.928 406.578 770.117 407.532C771.334 413.662 778.966 419.424 783.846 422.8Q764.181 443.037 743.035 461.721C728.405 440.907 716.746 414.867 707.826 391.112C704.645 382.641 702.005 373.974 698.814 365.506Q691.515 346.669 683.405 328.167C677.883 315.489 672.526 302.869 664.838 291.308Z"/>
	<path fill="#575867" d="M656.947 280.332C681.51 252.579 707.595 226.324 732.646 199.046C740.45 216.658 750.644 233.683 761.868 249.318C759.35 250.873 756.153 252.442 754.104 254.585C765.401 272.066 776.708 288.847 790.237 304.723Q797.675 313.561 805.447 322.107C810.374 327.455 815.696 332.65 820.06 338.468C821.647 340.585 821.663 342.062 821.18 344.573C821.93 347.133 831.321 354.909 833.757 357.398C826.269 372.822 807.253 395.677 795.839 409.09C789.55 403.023 783.237 396.87 776.553 391.239C775.508 389.157 773.157 386.73 771.735 384.807Q765.974 377.118 760.57 369.175C746.195 347.743 710.136 285.919 691.064 275.129C688.058 273.428 684.824 272.882 681.495 273.936C674.016 276.303 668.372 284.743 664.838 291.308C661.92 287.867 659.471 284.064 656.947 280.332Z"/>
	<path fill="#2C273E" d="M770.114 321.192C774.062 321.566 777.151 324.464 779.632 327.366C782.569 330.801 785.257 334.876 784.925 339.527C780.879 337.342 776.821 333.377 773.874 329.858C771.577 327.114 769.756 324.935 770.114 321.192Z"/>
	<path fill="#2C273E" d="M821.18 344.573C820.382 344.371 819.578 344.147 818.824 343.811C813.168 341.292 808.064 334.578 803.842 330.129C796.085 321.955 788.297 313.831 781.197 305.07C766.59 287.049 754.355 267.343 742.371 247.527C737.48 239.441 731.207 230.285 727.952 221.389C727.323 219.67 726.548 217.139 727.374 215.443C729.21 215.805 730.519 217.628 731.598 219.034C734.981 223.442 737.3 228.325 740.113 233.059C744.474 240.398 749.064 247.691 754.104 254.585C765.401 272.066 776.708 288.847 790.237 304.723Q797.675 313.561 805.447 322.107C810.374 327.455 815.696 332.65 820.06 338.468C821.647 340.585 821.663 342.062 821.18 344.573Z"/>
	<path fill="#999EA7" d="M726.794 482.835C731.649 486.562 735.696 492.972 739.767 497.612C744.285 502.761 749.245 507.397 754.304 512C733.945 530.51 711.836 546.854 689.156 562.38C612.107 615.128 534.552 647.183 440.083 650.067C434.201 650.36 428.378 650.416 422.489 650.324C418.809 641.817 415.904 632.89 412.877 624.135C421.588 623.783 430.332 622.571 438.983 621.521Q450.753 620.117 462.432 618.086Q474.11 616.056 485.663 613.404Q497.217 610.752 508.612 607.487Q520.007 604.221 531.211 600.352C598.909 577.21 675.341 532.734 726.794 482.835Z"/>
	<path fill="#FFEFC3" d="M922.08 748.261C928.693 751.595 933.988 753.327 941.344 754.013C943.343 765.879 942.754 778.509 941.958 790.484C938.45 843.304 920.619 896.391 889.875 939.654C880.221 953.238 859.818 976.983 844.831 983.581L844.71 981.738C844.836 981.581 844.951 981.415 845.086 981.266C847.161 978.994 850.469 977.238 852.923 975.324C858.23 971.184 863.56 966.618 868.1 961.643Q870.53 958.967 872.886 956.224Q875.241 953.482 877.52 950.676Q879.799 947.869 882 945.001Q884.2 942.133 886.321 939.205Q888.441 936.277 890.48 933.292Q892.519 930.306 894.475 927.266Q896.43 924.225 898.301 921.132Q900.172 918.039 901.957 914.895Q903.742 911.751 905.439 908.559Q907.136 905.367 908.745 902.13Q910.354 898.892 911.872 895.612Q913.391 892.331 914.818 889.01Q916.245 885.688 917.58 882.328Q918.916 878.969 920.157 875.574Q921.399 872.179 922.547 868.751Q923.694 865.323 924.747 861.864C926.433 856.402 929.625 848.76 929.461 843.012C929.43 841.924 929.338 841.375 928.545 840.59C927.456 840.929 927.399 841.059 926.867 842.042C924.852 845.765 923.829 851.012 922.593 855.1Q920.001 863.917 916.701 872.494C905.585 901.453 890.307 929.099 869.316 952.085C863.614 958.329 857.697 964.362 850.466 968.837C851.721 963.902 856.022 949.657 853.792 945.369C853.434 944.682 853.018 944.709 852.346 944.455C846.814 945.585 837.951 955.766 833.208 959.597C834.823 955.181 838.948 946.433 837.071 942.014C835.833 941.372 835.279 941.385 833.934 941.827C828.577 943.591 824.161 948.129 818.803 950.22C820.011 947.545 821.977 944.546 820.902 941.581C819.659 940.793 818.644 940.735 817.204 941.105C814.967 941.679 812.725 942.935 810.641 943.929C814.504 941.344 820.225 938.619 822.492 934.466L821.941 933.202C814.732 932.505 805.043 937.72 798.491 940.369C800.279 938.612 803.517 936.097 803.623 933.423C803.655 932.608 803.207 932.506 802.66 932.011C798.185 931.19 793.093 933.403 788.842 934.763C797.623 927.951 805.393 922.2 812.102 913.149C813.469 911.305 815.353 909.049 815.687 906.722C815.809 905.873 815.598 905.552 815.329 904.767C814.411 904.303 814.851 904.326 813.806 904.672C809.039 906.25 804.03 910.532 799.875 913.348C788.078 921.34 775.605 925.425 761.576 927.415C765.711 925.6 769.828 924.286 773.691 921.88C783.796 915.587 801.843 898.329 806.029 887.236C806.411 886.223 806.601 885.346 806.611 884.255L805.998 883.522C797.056 883.618 782.153 916.238 742.494 908.615C755.297 904.571 767.923 900.697 779.529 893.722C830.465 863.11 848.537 801.368 891.342 762.59C897.275 757.214 903.685 751.72 910.868 748.108C904.422 753.968 897.448 759.334 891.292 765.492C878.789 777.998 855.231 806.893 851.852 823.944C859.881 815.27 866.147 804.855 872.817 795.137C885.377 776.84 902.258 758.568 922.08 748.261Z"/>
	<path fill="#2C273E" d="M921 753.343C921.694 753.734 921.778 754.263 922.131 754.959C921.461 759.488 902.026 785.421 897.99 790.645C897.855 790.565 897.697 790.515 897.586 790.404C896.899 789.72 896.708 789.077 896.753 788.138C897.167 779.504 914.562 759.183 921 753.343Z"/>
	<path fill="#2C273E" d="M872.336 866.766L873.048 867.258C873.46 868.381 873.538 868.752 873.244 869.965C872.404 873.433 869.623 877.071 867.632 879.976C858.614 893.142 848.588 904.737 834.729 912.95L834.159 912.912C834.278 910.32 841.524 904.535 843.539 902.696C849.94 896.85 855.939 890.93 860.934 883.786C864.696 878.407 867.809 872.585 871.842 867.396L872.336 866.766Z"/>
	<path fill="#2C273E" d="M873.021 822.793L873.791 823.659C873.981 824.481 874.139 825.181 873.983 826.025C872.05 836.457 845.845 864.921 837.32 871.165L836.815 870.296C837.511 866.326 844.819 860.121 847.572 857.126C857.112 846.743 865.387 834.622 873.021 822.793Z"/>
	<path fill="#2C273E" d="M930.513 773.291C931.193 774.079 931.364 774.4 931.524 775.457C932.615 782.687 930.453 791.08 929.153 798.214C922.166 836.55 905.41 878.955 881.092 909.656L880.699 909.273C879.603 905.757 889.124 890.707 891.277 886.731Q896.604 876.915 901.328 866.795Q906.053 856.675 910.157 846.288Q914.261 835.901 917.73 825.285Q921.199 814.669 924.02 803.863C926.545 794.192 927.382 782.935 930.341 773.799C930.396 773.629 930.456 773.461 930.513 773.291Z"/>
	<path fill="#2C273E" d="M923.336 762.417C924.599 764.686 923.43 769.807 922.89 772.355C914.213 813.27 876.931 900.481 840.968 923.833C840.314 923.534 840.681 923.785 840.125 922.801C841.056 918.673 852.226 908.58 855.579 904.517C865.717 892.232 873.87 877.196 881.284 863.151Q888.805 848.926 895.411 834.253Q902.017 819.58 907.68 804.519Q911.627 793.949 915.281 783.275C917.626 776.377 919.477 768.633 923.336 762.417Z"/>
	<path fill="#727382" d="M642.43 310.184C649.955 325.168 658.246 339.906 664.948 355.275C683.208 397.147 697.738 440.127 723.665 478.188C674.608 521.558 624.992 553.279 565.843 581.221C562.704 572.722 560.272 563.963 557.272 555.411C554.8 548.366 551.813 541.546 548.779 534.729C542.675 521.013 534.298 507.981 529.328 493.845C527.731 489.301 526.966 484.69 527.181 479.871C528.149 458.134 544.187 437.667 555.984 420.303C559.1 415.717 562.524 409.154 566.581 405.437Q576.762 423.816 586.635 442.363C592.983 454.275 611.943 494.071 620.461 500.798C621.636 501.726 622.477 502.072 623.956 501.901L624.462 501.026C624.15 493.831 616.125 483.526 612.603 477.031L588.141 431.133C582.679 421.113 575.368 410.416 571.706 399.603C571.658 399.463 571.614 399.321 571.568 399.179C579.64 385.504 631.25 317.344 642.43 310.184Z"/>
	<path fill="#575867" d="M559.316 391.92L566.581 405.437C562.524 409.154 559.1 415.717 555.984 420.303C544.187 437.667 528.149 458.134 527.181 479.871C526.966 484.69 527.731 489.301 529.328 493.845C534.298 507.981 542.675 521.013 548.779 534.729C551.813 541.546 554.8 548.366 557.272 555.411C560.272 563.963 562.704 572.722 565.843 581.221C527.609 598.593 488.288 609.392 446.759 615.495C434.826 617.249 422.769 617.912 410.842 619.626C409.815 616.375 407.98 609.527 405.168 607.527L404.622 607.968C404.175 612.126 405.548 615.415 406.913 619.271Q401.173 619.635 395.443 620.126C386.977 599.775 380.284 578.768 371.122 558.671C368.574 553.081 366.76 543.614 361.948 539.538C361.175 538.883 361.156 538.902 360.118 539.039C359.821 539.378 359.623 539.565 359.421 540.002C358.061 542.935 362.188 552.286 363.345 555.498C366.446 564.106 371.191 572.627 374.817 581.104C380.283 593.88 384.87 607.042 389.557 620.12C386.359 620.304 383.124 620.236 379.92 620.251C374.169 607.994 369.383 595.331 364.34 582.778Q356.237 562.505 347.687 542.417C343.767 532.973 339.828 521.243 334.72 512.573C333.524 510.544 330.537 506.075 328.269 505.494L327.535 506.216C327.279 508.258 327.832 509.934 328.528 511.831C331.071 518.756 334.684 525.037 337.532 531.795C344.485 548.295 351.132 564.936 358.183 581.395C363.707 594.288 369.696 606.686 374.064 620.073C363.481 619.572 353.246 617.8 342.875 615.744C333.167 590.257 321.717 565.513 311.361 540.289Q304.926 524.735 298.79 509.061C294.928 498.982 291.357 488.773 287.071 478.863C298.065 480.672 309.465 481.187 320.56 482.378L393.017 490.363Q415.192 493.057 437.302 496.237C449.371 497.912 461.436 499.769 473.639 500.022C484.295 480.683 499.383 464.037 513.312 447.03C528.445 428.555 543.556 409.854 559.316 391.92Z"/>
	<path fill="#2C273E" d="M298.793 483.72C299.861 483.858 301.113 483.964 302.02 484.598C307.081 488.136 327.493 543.895 331.691 554.476C334.744 562.172 342.96 578.19 343.637 585.669C343.467 585.572 343.287 585.492 343.128 585.379C340.937 583.814 339.39 580.374 338.178 578C329.461 560.921 322.204 542.394 314.793 524.697C310.209 513.751 304.993 502.909 300.89 491.788C299.903 489.113 299.244 486.533 298.793 483.72Z"/>
	<path fill="#999EA7" d="M718.444 48.2391C763.842 47.3184 809.329 48.9632 854.741 49.0971C830.102 71.3397 807.168 95.3503 783.761 118.869C736.68 166.172 690.189 214.511 647.242 265.631C645.18 263.52 642.921 261.56 640.749 259.561C647.616 250.634 655.643 242.464 663.275 234.187L698.906 195.867C730.813 161.881 762.5 127.516 795.329 94.423C804.144 85.5372 813.55 77.3342 822.442 68.56C824.783 66.2494 829.412 62.1353 829.419 58.7404C828.971 58.35 828.576 58.1141 827.999 57.9523C821.633 56.1686 813.431 57.0129 806.801 56.8437Q788.441 56.2574 770.073 56.0026Q727.168 55.4223 684.336 57.9913C609.168 62.9962 515.695 78.8991 450.114 116.49C443.967 120.013 416.706 134.974 415.242 140.379C417.699 142.907 423.868 138.231 426.109 136.805C434.86 131.237 443.331 125.388 452.34 120.214C471.161 109.407 491.99 100.663 512.595 93.8559C590.781 68.0265 677.651 58.2876 759.768 60.9093C777.457 61.4741 795.466 61.7129 812.858 65.2208C801.749 77.7246 789.784 89.0518 777.998 100.885Q758.084 121.024 738.757 141.727Q710.176 172.034 681.903 202.627C666.203 219.841 651.002 237.462 634.632 254.052C630.661 251.242 626.706 248.343 622.579 245.765C577.143 217.377 527.395 221.697 477.656 232.904C476.501 228.981 475.352 225.664 472.142 222.882C467.594 218.94 461.155 218.468 455.403 218.863C439.03 219.989 424.353 226.754 413.628 239.311C408.632 245.16 403.371 253.615 404.167 261.625C404.559 265.563 406.636 268.893 409.708 271.323C416.483 276.683 426.242 277.316 434.511 276.286C452.508 274.045 467.169 262.568 477.991 248.628C523.405 243.837 575.958 250.903 614.219 277.26C601.443 294.845 587.353 311.362 573.424 328.033L522.519 388.932L490.818 426.944C480.651 439.198 470.583 452.626 458.056 462.574C445.635 462.25 433.145 459.65 420.896 457.692C411.273 456.183 401.466 455.302 391.788 454.159Q362.27 450.599 332.69 447.596C251.398 439.147 169.828 433.686 88.4205 426.464C93.4898 419.137 100.949 412.697 107.384 406.549Q118.966 395.58 130.357 384.413Q215.637 301.863 305.533 224.365Q313.274 217.5 321.166 210.809C326.802 206.088 341.976 195.889 344.85 190.286C345.221 189.563 344.995 189.425 344.772 188.713C343.524 188.603 344.068 188.475 343.071 188.985C334.425 193.414 326.934 200.962 319.613 207.282L292.632 230.553C262.955 255.988 233.051 281.055 203.866 307.07Q153.041 352.369 104.123 399.72C98.4632 405.095 77.439 422.045 75.3145 428.674L75.8015 429.437C78.1808 430.812 80.7536 431.263 83.4317 431.711C92.7176 433.262 102.389 433.651 111.776 434.559Q142.569 437.552 173.4 440.129Q270.454 447.695 367.231 458.219C384.15 460.109 401.215 461.679 418.065 464.094C431.323 465.994 444.34 468.928 457.709 470.142L461.505 481.043C435.527 479.471 409.646 474.936 383.835 471.628Q327.7 464.487 271.388 458.903Q199.908 451.594 128.299 445.686L80.8601 442.037C71.8963 441.37 62.8238 440.975 53.906 439.851C88.8442 403.674 126.376 370.159 163.878 336.69C190.619 312.825 217.162 288.684 244.203 265.161L322.997 196.89C343.942 178.666 364.494 159.711 387.22 143.698C401.855 133.386 417.598 124.485 433.483 116.261C520.782 71.0641 620.854 52.0059 718.444 48.2391Z"/>
	<path fill="#2C273E" d="M397.814 147.154C398.259 147.226 398.834 147.3 399.246 147.463C400.547 147.976 400.798 148.353 401.382 149.519C401.225 151.386 400.282 152.399 399.164 153.845C397.511 153.316 396.616 152.747 395.824 151.222C395.92 149.427 396.767 148.513 397.814 147.154Z"/>
	<path fill="#2C273E" d="M345.282 283.779C346.758 284.111 347.429 284.519 348.351 285.641C348.58 289.102 341.053 304.236 339.244 308.376C338.639 308.13 338.076 307.848 337.552 307.448C336.413 306.577 336.071 305.522 335.958 304.144C335.395 297.262 341.028 288.813 345.282 283.779Z"/>
	<path fill="#2C273E" d="M212.379 343.187C212.959 343.366 213.479 343.677 214.017 343.952C216.485 348.61 210.355 358.779 209.763 363.97C209.28 368.198 211.331 372.527 210.88 376.737C210.7 378.416 209.708 378.989 208.545 380.049C206.188 376.714 205.006 373.097 204.594 369.047C203.677 360.04 206.716 350.179 212.379 343.187Z"/>
	<path fill="#2C273E" d="M314.982 434.96L397.536 444.275C405.804 445.2 419.164 444.783 426.454 447.649C427.628 448.111 428.175 449.97 428.645 451.054C419.66 451.207 410.15 449.045 401.256 447.837Q376.098 444.44 350.867 441.637C343.958 440.933 321.787 440.168 317.146 438.204C315.742 437.61 315.508 436.239 314.982 434.96Z"/>
	<path fill="#2C273E" d="M367.449 227.255C368.943 227.485 369.724 227.734 370.728 228.893C370.75 229.279 370.859 229.668 370.796 230.049C370.427 232.284 351.276 255.394 348.26 259.512C337.289 274.492 322.88 296.254 326.313 315.736C330.386 338.853 364.264 340.689 382.46 341.067C386.262 341.147 396.755 340.273 399.469 342.159L399.294 343.017L397.773 343.819Q397.19 343.922 396.604 344.004C377.51 346.702 345.362 344.068 329.737 332.283C323.951 327.92 320.454 321.9 319.545 314.715C315.847 285.49 350.238 248.933 367.449 227.255Z"/>
</svg>
